<svg width="18" height="18" viewBox="0 0 18 18" fill="none" xmlns="http://www.w3.org/2000/svg">
<path fill-rule="evenodd" clip-rule="evenodd" d="M3.0001 0.599976C2.36358 0.599976 1.75313 0.852832 1.30304 1.30292C0.852954 1.75301 0.600098 2.36346 0.600098 2.99998V15C0.600098 15.6365 0.852954 16.2469 1.30304 16.697C1.75313 17.1471 2.36358 17.4 3.0001 17.4H15.0001C15.6366 17.4 16.2471 17.1471 16.6972 16.697C17.1472 16.2469 17.4001 15.6365 17.4001 15V2.99998C17.4001 2.36346 17.1472 1.75301 16.6972 1.30292C16.2471 0.852832 15.6366 0.599976 15.0001 0.599976H3.0001ZM13.8001 5.39998C13.8001 5.08172 13.6737 4.77649 13.4486 4.55145C13.2236 4.3264 12.9184 4.19998 12.6001 4.19998C12.2818 4.19998 11.9766 4.3264 11.7516 4.55145C11.5265 4.77649 11.4001 5.08172 11.4001 5.39998V12.6C11.4001 12.9182 11.5265 13.2235 11.7516 13.4485C11.9766 13.6735 12.2818 13.8 12.6001 13.8C12.9184 13.8 13.2236 13.6735 13.4486 13.4485C13.6737 13.2235 13.8001 12.9182 13.8001 12.6V5.39998ZM10.2001 7.79998C10.2001 7.48172 10.0737 7.17649 9.84863 6.95145C9.62358 6.7264 9.31836 6.59998 9.0001 6.59998C8.68184 6.59998 8.37661 6.7264 8.15157 6.95145C7.92653 7.17649 7.8001 7.48172 7.8001 7.79998V12.6C7.8001 12.9182 7.92653 13.2235 8.15157 13.4485C8.37661 13.6735 8.68184 13.8 9.0001 13.8C9.31836 13.8 9.62358 13.6735 9.84863 13.4485C10.0737 13.2235 10.2001 12.9182 10.2001 12.6V7.79998ZM6.6001 11.4C6.6001 11.0817 6.47367 10.7765 6.24863 10.5514C6.02358 10.3264 5.71836 10.2 5.4001 10.2C5.08184 10.2 4.77661 10.3264 4.55157 10.5514C4.32653 10.7765 4.2001 11.0817 4.2001 11.4V12.6C4.2001 12.9182 4.32653 13.2235 4.55157 13.4485C4.77661 13.6735 5.08184 13.8 5.4001 13.8C5.71836 13.8 6.02358 13.6735 6.24863 13.4485C6.47367 13.2235 6.6001 12.9182 6.6001 12.6V11.4Z" fill="#1C64F2"/>
</svg>
