<svg width="19" height="21" viewBox="0 0 19 21" fill="none" xmlns="http://www.w3.org/2000/svg">
<path d="M7.42859 9.55V15.55M11.4286 9.55V15.55M1.42859 5.55H17.4286M16.4286 5.55L15.5616 17.692C15.5257 18.1966 15.2999 18.6688 14.9297 19.0136C14.5595 19.3583 14.0724 19.55 13.5666 19.55H5.29059C4.78473 19.55 4.29766 19.3583 3.92747 19.0136C3.55729 18.6688 3.33151 18.1966 3.29559 17.692L2.42859 5.55H16.4286ZM12.4286 5.55V2.55C12.4286 2.28479 12.3232 2.03043 12.1357 1.8429C11.9482 1.65536 11.6938 1.55 11.4286 1.55H7.42859C7.16337 1.55 6.90902 1.65536 6.72148 1.8429C6.53395 2.03043 6.42859 2.28479 6.42859 2.55V5.55H12.4286Z" stroke="#C81E1E" stroke-width="2" stroke-linecap="round" stroke-linejoin="round"/>
</svg>
