<svg width="18" height="18" viewBox="0 0 18 18" fill="none" xmlns="http://www.w3.org/2000/svg">
<path d="M5.80078 14.5605C5.80078 14.4902 5.73047 14.4199 5.625 14.4199C5.51953 14.4199 5.44922 14.4902 5.44922 14.5605C5.44922 14.6309 5.51953 14.7012 5.625 14.666C5.73047 14.666 5.80078 14.6309 5.80078 14.5605ZM4.71094 14.3848C4.71094 14.4551 4.78125 14.5605 4.88672 14.5605C4.95703 14.5957 5.0625 14.5605 5.09766 14.4902C5.09766 14.4199 5.0625 14.3496 4.95703 14.3145C4.85156 14.2793 4.74609 14.3145 4.71094 14.3848ZM6.29297 14.3496C6.1875 14.3496 6.11719 14.4199 6.11719 14.5254C6.11719 14.5957 6.22266 14.6309 6.32812 14.5957C6.43359 14.5605 6.50391 14.5254 6.46875 14.4551C6.46875 14.3848 6.36328 14.3145 6.29297 14.3496ZM8.57812 0.849609C3.72656 0.849609 0 4.57617 0 9.42773C0 13.3301 2.42578 16.6699 5.94141 17.8652C6.39844 17.9355 6.53906 17.6543 6.53906 17.4434C6.53906 17.1973 6.53906 16.002 6.53906 15.2637C6.53906 15.2637 4.07812 15.791 3.55078 14.209C3.55078 14.209 3.16406 13.1895 2.60156 12.9434C2.60156 12.9434 1.79297 12.3809 2.63672 12.3809C2.63672 12.3809 3.51562 12.4512 4.00781 13.2949C4.78125 14.666 6.04688 14.2793 6.57422 14.0332C6.64453 13.4707 6.85547 13.084 7.13672 12.8379C5.16797 12.627 3.16406 12.3457 3.16406 8.9707C3.16406 7.98633 3.44531 7.5293 4.00781 6.89648C3.90234 6.65039 3.62109 5.73633 4.11328 4.50586C4.81641 4.29492 6.53906 5.45508 6.53906 5.45508C7.24219 5.24414 7.98047 5.17383 8.71875 5.17383C9.49219 5.17383 10.2305 5.24414 10.9336 5.45508C10.9336 5.45508 12.6211 4.25977 13.3594 4.50586C13.8516 5.73633 13.5352 6.65039 13.4648 6.89648C14.0273 7.5293 14.3789 7.98633 14.3789 8.9707C14.3789 12.3457 12.3047 12.627 10.3359 12.8379C10.6523 13.1191 10.9336 13.6465 10.9336 14.4902C10.9336 15.6504 10.8984 17.127 10.8984 17.4082C10.8984 17.6543 11.0742 17.9355 11.5312 17.8301C15.0469 16.6699 17.4375 13.3301 17.4375 9.42773C17.4375 4.57617 13.4648 0.849609 8.57812 0.849609ZM3.41016 12.9785C3.33984 13.0137 3.375 13.1191 3.41016 13.1895C3.48047 13.2246 3.55078 13.2598 3.62109 13.2246C3.65625 13.1895 3.65625 13.084 3.58594 13.0137C3.51562 12.9785 3.44531 12.9434 3.41016 12.9785ZM3.02344 12.6973C2.98828 12.7676 3.02344 12.8027 3.09375 12.8379C3.16406 12.873 3.23438 12.873 3.26953 12.8027C3.26953 12.7676 3.23438 12.7324 3.16406 12.6973C3.09375 12.6621 3.05859 12.6621 3.02344 12.6973ZM4.14844 13.9629C4.11328 13.998 4.11328 14.1035 4.21875 14.1738C4.28906 14.2441 4.39453 14.2793 4.42969 14.209C4.46484 14.1738 4.46484 14.0684 4.39453 13.998C4.32422 13.9277 4.21875 13.8926 4.14844 13.9629ZM3.76172 13.4355C3.69141 13.4707 3.69141 13.5762 3.76172 13.6465C3.83203 13.7168 3.90234 13.752 3.97266 13.7168C4.00781 13.6816 4.00781 13.5762 3.97266 13.5059C3.90234 13.4355 3.83203 13.4004 3.76172 13.4355Z" fill="#111827"/>
</svg>
