<svg width="20" height="18" viewBox="0 0 20 18" fill="none" xmlns="http://www.w3.org/2000/svg">
<path fill-rule="evenodd" clip-rule="evenodd" d="M0.199951 1.99998C0.199951 1.62867 0.347451 1.27258 0.610002 1.01003C0.872553 0.747475 1.22865 0.599976 1.59995 0.599976H18.4C18.7713 0.599976 19.1273 0.747475 19.3899 1.01003C19.6525 1.27258 19.8 1.62867 19.8 1.99998C19.8 2.37128 19.6525 2.72737 19.3899 2.98992C19.1273 3.25248 18.7713 3.39998 18.4 3.39998H1.59995C1.22865 3.39998 0.872553 3.25248 0.610002 2.98992C0.347451 2.72737 0.199951 2.37128 0.199951 1.99998ZM0.199951 8.99998C0.199951 8.62867 0.347451 8.27258 0.610002 8.01003C0.872553 7.74748 1.22865 7.59998 1.59995 7.59998H9.99995C10.3713 7.59998 10.7273 7.74748 10.9899 8.01003C11.2525 8.27258 11.4 8.62867 11.4 8.99998C11.4 9.37128 11.2525 9.72737 10.9899 9.98992C10.7273 10.2525 10.3713 10.4 9.99995 10.4H1.59995C1.22865 10.4 0.872553 10.2525 0.610002 9.98992C0.347451 9.72737 0.199951 9.37128 0.199951 8.99998ZM0.199951 16C0.199951 15.6287 0.347451 15.2726 0.610002 15.01C0.872553 14.7475 1.22865 14.6 1.59995 14.6H18.4C18.7713 14.6 19.1273 14.7475 19.3899 15.01C19.6525 15.2726 19.8 15.6287 19.8 16C19.8 16.3713 19.6525 16.7274 19.3899 16.9899C19.1273 17.2525 18.7713 17.4 18.4 17.4H1.59995C1.22865 17.4 0.872553 17.2525 0.610002 16.9899C0.347451 16.7274 0.199951 16.3713 0.199951 16Z" fill="#111827"/>
</svg>
