<svg width="18" height="16" viewBox="0 0 18 16" fill="none" xmlns="http://www.w3.org/2000/svg">
<path d="M16.1367 4.4707C16.8398 3.94336 17.4727 3.31055 17.9648 2.57227C17.332 2.85352 16.5938 3.06445 15.8555 3.13477C16.6289 2.67773 17.1914 1.97461 17.4727 1.0957C16.7695 1.51758 15.9609 1.83398 15.1523 2.00977C14.4492 1.27148 13.5 0.849609 12.4453 0.849609C10.4062 0.849609 8.75391 2.50195 8.75391 4.54102C8.75391 4.82227 8.78906 5.10352 8.85938 5.38477C5.80078 5.20898 3.05859 3.73242 1.23047 1.51758C0.914062 2.04492 0.738281 2.67773 0.738281 3.38086C0.738281 4.64648 1.37109 5.77148 2.39062 6.43945C1.79297 6.4043 1.19531 6.26367 0.703125 5.98242V6.01758C0.703125 7.81055 1.96875 9.28711 3.65625 9.63867C3.375 9.70898 3.02344 9.7793 2.70703 9.7793C2.46094 9.7793 2.25 9.74414 2.00391 9.70898C2.46094 11.1855 3.83203 12.2402 5.44922 12.2754C4.18359 13.2598 2.60156 13.8574 0.878906 13.8574C0.5625 13.8574 0.28125 13.8223 0 13.7871C1.61719 14.8418 3.55078 15.4395 5.66016 15.4395C12.4453 15.4395 16.1367 9.84961 16.1367 4.96289C16.1367 4.78711 16.1367 4.64648 16.1367 4.4707Z" fill="#111827"/>
</svg>
